<svg xmlns="http://www.w3.org/2000/svg" xmlns:se="http://svg-edit.googlecode.com" xmlns:xlink="http://www.w3.org/1999/xlink" xmlns:dc="http://purl.org/dc/elements/1.1/" xmlns:cc="http://creativecommons.org/ns#" xmlns:rdf="http://www.w3.org/1999/02/22-rdf-syntax-ns#" xmlns:inkscape="http://www.inkscape.org/namespaces/inkscape" width="777" height="480" style="">                                    <title>my vector image</title>                                    <!-- Created with Vector Paint - http://www.vectorpaint.yaks.com/ https://chrome.google.com/webstore/detail/hnbpdiengicdefcjecjbnjnoifekhgdo -->                                    <rect id="backgroundrect" width="100%" height="100%" x="0" y="0" fill="#FFFFFF" stroke="none"/>                                <g class="currentLayer" style=""><title>Layer 1</title><path fill="#dadada" fill-opacity="1" stroke="#222222" stroke-opacity="1" stroke-width="2" stroke-dasharray="none" stroke-linejoin="round" stroke-linecap="butt" stroke-dashoffset="" fill-rule="nonzero" opacity="1" marker-start="" marker-mid="" marker-end="" d="M312,143.5 C312,114.49447513812154 337.50828729281767,91 369,91 C400.49171270718233,91 426,114.49447513812154 426,143.5 C426,172.50552486187846 400.49171270718233,196 369,196 C337.50828729281767,196 312,172.50552486187846 312,143.5 Z" id="svg_1" class=""/><polyline fill="none" stroke="#222222" stroke-width="2" stroke-linejoin="round" stroke-dashoffset="" fill-rule="nonzero" marker-start="" marker-mid="" marker-end="" id="svg_2" points="336.44409684975835,135.55906003755376 334.0818920898722,135.55906003755376 333.2944905032434,135.55906003755376 331.71968732998596,136.3464616241825 330.93228574335717,136.3464616241825 330.1448841567285,137.13386321081123 329.3574825700997,138.7086663840687 329.3574825700997,139.49606797069742 328.57008098347103,141.0708711439549 328.57008098347103,141.85827273058362 328.57008098347103,144.22047749046982 328.57008098347103,145.00787907709855 328.57008098347103,145.79528066372728 328.57008098347103,146.58268225035602 329.3574825700997,148.15748542361348 330.93228574335717,148.15748542361348 330.93228574335717,149.73228859687094 331.71968732998596,149.73228859687094 332.50708891661463,150.51969018349968 333.2944905032434,152.09449335675714 333.2944905032434,152.88189494338593 334.0818920898722,152.88189494338593 334.8692936765009,152.88189494338593 334.8692936765009,153.66929653001466 335.6566952631297,153.66929653001466 336.44409684975835,153.66929653001466 337.23149843638714,153.66929653001466 338.0189000230158,153.66929653001466 338.8063016096446,153.66929653001466 339.5937031962733,154.4566981166434 340.38110478290207,155.24409970327213 341.16850636953075,155.24409970327213 341.95590795615954,155.24409970327213 342.7433095427882,155.24409970327213 343.530711129417,155.24409970327213 345.10551430267446,155.24409970327213 345.89291588930314,155.24409970327213 346.68031747593193,155.24409970327213 349.04252223581807,155.24409970327213 349.82992382244686,155.24409970327213 350.61732540907553,155.24409970327213 352.1921285823331,154.4566981166434 352.1921285823331,153.66929653001466 352.9795301689618,152.88189494338593 353.7669317555906,152.88189494338593 354.55433334221925,152.09449335675714 354.55433334221925,151.3070917701284 354.55433334221925,150.51969018349968 354.55433334221925,148.9448870102422 354.55433334221925,148.15748542361348 355.34173492884804,145.00787907709855 355.34173492884804,144.22047749046982 355.34173492884804,143.4330759038411 355.34173492884804,141.85827273058362 355.34173492884804,141.0708711439549 355.34173492884804,139.49606797069742 355.34173492884804,138.7086663840687 355.34173492884804,137.13386321081123 354.55433334221925,136.3464616241825 353.7669317555906,136.3464616241825 353.7669317555906,135.55906003755376 352.9795301689618,135.55906003755376 351.4047269957043,133.98425686429624 350.61732540907553,133.1968552776675 349.04252223581807,133.1968552776675 348.2551206491894,133.1968552776675 346.68031747593193,132.40945369103878 345.89291588930314,131.62205210441005 344.3181127160457,131.62205210441005 343.530711129417,131.62205210441005 342.7433095427882,130.8346505177813 341.95590795615954,130.8346505177813 341.16850636953075,130.8346505177813 339.5937031962733,130.8346505177813 338.8063016096446,130.8346505177813 337.23149843638714,130.8346505177813 336.44409684975835,130.8346505177813 334.0818920898722,131.62205210441005 332.50708891661463,132.40945369103878 331.71968732998596,133.1968552776675 330.93228574335717,133.98425686429624 330.1448841567285,134.77165845092497 329.3574825700997,135.55906003755376 329.3574825700997,136.3464616241825 329.3574825700997,137.13386321081123 329.3574825700997,137.92126479743996 330.1448841567285,138.7086663840687 " style="color: rgb(0, 0, 0);"/><polyline fill="none" stroke="#222222" stroke-width="2" stroke-linejoin="round" stroke-dashoffset="" fill-rule="nonzero" marker-start="" marker-mid="" marker-end="" id="svg_3" points="391.56220791376984,132.40945369103878 389.9874047405124,132.40945369103878 389.2000031538836,132.40945369103878 387.6251999806261,132.40945369103878 387.6251999806261,133.1968552776675 385.26299522074,133.98425686429624 384.4755936341112,134.77165845092497 384.4755936341112,135.55906003755376 383.6881920474824,135.55906003755376 383.6881920474824,136.3464616241825 383.6881920474824,137.13386321081123 383.6881920474824,137.92126479743996 383.6881920474824,139.49606797069742 383.6881920474824,141.0708711439549 383.6881920474824,141.85827273058362 383.6881920474824,142.64567431721235 383.6881920474824,143.4330759038411 383.6881920474824,144.22047749046982 383.6881920474824,145.00787907709855 383.6881920474824,145.79528066372728 383.6881920474824,147.37008383698475 383.6881920474824,148.9448870102422 384.4755936341112,149.73228859687094 385.26299522074,150.51969018349968 386.05039680736866,151.3070917701284 386.83779839399745,152.09449335675714 387.6251999806261,153.66929653001466 388.4126015672549,153.66929653001466 388.4126015672549,154.4566981166434 389.2000031538836,155.24409970327213 389.9874047405124,155.24409970327213 391.56220791376984,155.24409970327213 392.3496095003985,155.24409970327213 393.1370110870273,155.24409970327213 393.924412673656,155.24409970327213 396.28661743354223,155.24409970327213 397.0740190201709,155.24409970327213 397.8614206067997,155.24409970327213 398.6488221934284,155.24409970327213 399.43622378005716,155.24409970327213 401.7984285399434,154.4566981166434 402.5858301265721,154.4566981166434 403.3732317132009,154.4566981166434 404.16063329982956,153.66929653001466 404.16063329982956,152.88189494338593 404.94803488645834,152.09449335675714 405.73543647308696,150.51969018349968 406.5228380597158,150.51969018349968 407.3102396463444,148.9448870102422 407.3102396463444,148.15748542361348 407.3102396463444,147.37008383698475 407.3102396463444,146.58268225035602 407.3102396463444,145.79528066372728 407.3102396463444,145.00787907709855 407.3102396463444,144.22047749046982 407.3102396463444,143.4330759038411 407.3102396463444,142.64567431721235 407.3102396463444,141.85827273058362 407.3102396463444,141.0708711439549 407.3102396463444,140.28346955732616 406.5228380597158,139.49606797069742 405.73543647308696,138.7086663840687 404.94803488645834,137.92126479743996 404.94803488645834,137.13386321081123 404.94803488645834,136.3464616241825 404.16063329982956,136.3464616241825 403.3732317132009,136.3464616241825 403.3732317132009,135.55906003755376 402.5858301265721,134.77165845092497 401.7984285399434,134.77165845092497 399.43622378005716,133.1968552776675 398.6488221934284,132.40945369103878 397.8614206067997,132.40945369103878 397.0740190201709,132.40945369103878 396.28661743354223,132.40945369103878 393.924412673656,132.40945369103878 392.3496095003985,132.40945369103878 391.56220791376984,132.40945369103878 391.56220791376984,133.1968552776675 389.9874047405124,133.1968552776675 " style="color: rgb(0, 0, 0);"/><polyline fill="none" stroke="#222222" stroke-width="2" stroke-linejoin="round" stroke-dashoffset="" fill-rule="nonzero" marker-start="" marker-mid="" marker-end="" id="svg_4" points="394.71181426028477,145.00787907709855 393.924412673656,144.22047749046982 393.924412673656,143.4330759038411 393.924412673656,142.64567431721235 393.924412673656,141.85827273058362 393.1370110870273,141.85827273058362 393.1370110870273,142.64567431721235 393.1370110870273,143.4330759038411 393.1370110870273,144.22047749046982 393.1370110870273,145.00787907709855 394.71181426028477,145.00787907709855 394.71181426028477,144.22047749046982 394.71181426028477,143.4330759038411 394.71181426028477,142.64567431721235 394.71181426028477,141.85827273058362 393.924412673656,141.85827273058362 393.1370110870273,141.85827273058362 392.3496095003985,141.85827273058362 " style="color: rgb(0, 0, 0);"/><polyline fill="none" stroke="#222222" stroke-width="2" stroke-linejoin="round" stroke-dashoffset="" fill-rule="nonzero" marker-start="" marker-mid="" marker-end="" id="svg_5" points="341.95590795615954,142.64567431721235 341.16850636953075,142.64567431721235 340.38110478290207,142.64567431721235 339.5937031962733,142.64567431721235 339.5937031962733,143.4330759038411 339.5937031962733,144.22047749046982 341.16850636953075,145.00787907709855 341.95590795615954,145.00787907709855 342.7433095427882,145.00787907709855 343.530711129417,145.00787907709855 343.530711129417,144.22047749046982 342.7433095427882,143.4330759038411 341.95590795615954,143.4330759038411 341.16850636953075,143.4330759038411 341.16850636953075,145.00787907709855 341.16850636953075,145.79528066372728 341.95590795615954,146.58268225035602 341.95590795615954,147.37008383698475 342.7433095427882,148.15748542361348 342.7433095427882,147.37008383698475 342.7433095427882,146.58268225035602 341.95590795615954,145.79528066372728 341.95590795615954,145.00787907709855 341.16850636953075,145.00787907709855 340.38110478290207,144.22047749046982 340.38110478290207,143.4330759038411 341.16850636953075,143.4330759038411 " style="color: rgb(0, 0, 0);"/><polyline fill="none" stroke="#222222" stroke-width="2" stroke-linejoin="round" stroke-dashoffset="" fill-rule="nonzero" marker-start="" marker-mid="" marker-end="" id="svg_6" points="345.10551430267446,167.84252508933184 345.89291588930314,167.84252508933184 346.68031747593193,167.84252508933184 348.2551206491894,167.84252508933184 349.82992382244686,167.84252508933184 352.1921285823331,167.84252508933184 355.34173492884804,167.84252508933184 358.49134127536297,167.84252508933184 360.06614444862043,167.84252508933184 360.8535460352491,167.84252508933184 361.6409476218779,167.84252508933184 364.00315238176404,167.84252508933184 366.3653571416503,167.84252508933184 368.72756190153655,167.84252508933184 371.0897666614227,167.84252508933184 372.66456983468015,167.84252508933184 374.2393730079376,167.84252508933184 375.0267745945664,167.84252508933184 377.38897935445254,167.84252508933184 378.96378252771,167.0551235027031 380.5385857009675,167.0551235027031 382.9007904608537,167.0551235027031 383.6881920474824,167.0551235027031 384.4755936341112,167.0551235027031 385.26299522074,167.0551235027031 386.05039680736866,167.0551235027031 386.83779839399745,167.0551235027031 387.6251999806261,167.0551235027031 388.4126015672549,167.0551235027031 389.2000031538836,167.0551235027031 389.9874047405124,167.0551235027031 390.77480632714105,167.0551235027031 392.3496095003985,167.0551235027031 392.3496095003985,167.84252508933184 392.3496095003985,168.62992667596058 392.3496095003985,169.41732826258936 392.3496095003985,170.2047298492181 391.56220791376984,173.35433619573303 391.56220791376984,174.14173778236176 391.56220791376984,175.71654095561922 390.77480632714105,176.50394254224796 389.9874047405124,178.07874571550542 389.2000031538836,178.07874571550542 388.4126015672549,178.86614730213415 388.4126015672549,179.65354888876288 387.6251999806261,179.65354888876288 386.83779839399745,180.44095047539162 386.05039680736866,181.22835206202035 385.26299522074,182.01575364864908 384.4755936341112,182.01575364864908 383.6881920474824,182.8031552352778 382.9007904608537,182.8031552352778 381.32598728759626,183.59055682190655 379.7511841143388,183.59055682190655 378.96378252771,184.37795840853528 378.17638094108133,184.37795840853528 377.38897935445254,184.37795840853528 376.60157776782387,184.37795840853528 375.8141761811951,184.37795840853528 374.2393730079376,184.37795840853528 373.45197142130894,184.37795840853528 372.66456983468015,184.37795840853528 371.0897666614227,184.37795840853528 370.302365074794,184.37795840853528 369.5149634881652,184.37795840853528 368.72756190153655,184.37795840853528 367.94016031490776,184.37795840853528 367.15275872827897,184.37795840853528 365.5779555550215,184.37795840853528 364.7905539683928,183.59055682190655 363.21575079513536,183.59055682190655 362.4283492085066,182.8031552352778 361.6409476218779,182.8031552352778 360.8535460352491,182.01575364864908 359.27874286199165,181.22835206202035 358.49134127536297,180.44095047539162 357.7039396887342,180.44095047539162 356.9165381021055,179.65354888876288 356.9165381021055,178.86614730213415 355.34173492884804,178.07874571550542 354.55433334221925,176.50394254224796 352.9795301689618,176.50394254224796 351.4047269957043,174.14173778236176 351.4047269957043,173.35433619573303 350.61732540907553,172.5669346091043 349.04252223581807,171.77953302247556 349.04252223581807,170.99213143584683 348.2551206491894,170.2047298492181 347.4677190625606,169.41732826258936 347.4677190625606,168.62992667596058 346.68031747593193,167.84252508933184 345.89291588930314,167.0551235027031 345.89291588930314,166.26772191607438 345.10551430267446,165.48032032944565 " style="color: rgb(0, 0, 0);"/><polyline fill="none" stroke="#222222" stroke-width="2" stroke-linejoin="round" stroke-dashoffset="" fill-rule="nonzero" marker-start="" marker-mid="" marker-end="" id="svg_7" points="354.55433334221925,174.9291393689905 354.55433334221925,174.9291393689905 355.34173492884804,174.9291393689905 356.9165381021055,174.9291393689905 357.7039396887342,174.9291393689905 358.49134127536297,174.9291393689905 360.06614444862043,174.9291393689905 360.8535460352491,174.9291393689905 361.6409476218779,174.9291393689905 363.21575079513536,174.9291393689905 364.00315238176404,174.9291393689905 364.7905539683928,174.9291393689905 365.5779555550215,174.9291393689905 367.94016031490776,174.9291393689905 368.72756190153655,174.9291393689905 369.5149634881652,174.9291393689905 370.302365074794,174.9291393689905 371.8771682480515,174.9291393689905 373.45197142130894,174.9291393689905 374.2393730079376,174.9291393689905 376.60157776782387,174.9291393689905 377.38897935445254,174.9291393689905 378.96378252771,174.9291393689905 379.7511841143388,174.9291393689905 380.5385857009675,174.9291393689905 381.32598728759626,174.9291393689905 382.11338887422494,174.9291393689905 383.6881920474824,174.9291393689905 384.4755936341112,174.9291393689905 385.26299522074,174.9291393689905 386.05039680736866,174.9291393689905 386.83779839399745,174.9291393689905 387.6251999806261,174.9291393689905 388.4126015672549,174.9291393689905 389.2000031538836,174.9291393689905 " style="color: rgb(0, 0, 0);"/><polyline fill="none" stroke="#222222" stroke-width="2" stroke-linejoin="round" stroke-dashoffset="" fill-rule="nonzero" marker-start="" marker-mid="" marker-end="" id="svg_8" points="360.06614444862043,196.97638379459505 360.06614444862043,199.33858855448125 360.06614444862043,200.12599014110998 360.06614444862043,203.27559648762497 360.06614444862043,204.0629980742537 360.06614444862043,204.8503996608824 360.8535460352491,205.63780124751113 361.6409476218779,205.63780124751113 362.4283492085066,205.63780124751113 363.21575079513536,205.63780124751113 364.00315238176404,205.63780124751113 364.7905539683928,205.63780124751113 365.5779555550215,205.63780124751113 366.3653571416503,205.63780124751113 367.15275872827897,205.63780124751113 367.94016031490776,205.63780124751113 368.72756190153655,205.63780124751113 369.5149634881652,205.63780124751113 370.302365074794,205.63780124751113 371.8771682480515,205.63780124751113 371.8771682480515,204.8503996608824 371.8771682480515,204.0629980742537 371.8771682480515,203.27559648762497 371.8771682480515,202.48819490099623 371.8771682480515,201.70079331436744 371.8771682480515,200.9133917277387 371.8771682480515,200.12599014110998 371.8771682480515,198.55118696785252 371.8771682480515,197.76378538122378 371.8771682480515,196.97638379459505 371.8771682480515,195.4015806213376 371.8771682480515,194.61417903470885 " style="color: rgb(0, 0, 0);"/><polyline fill="none" stroke="#222222" stroke-width="2" stroke-linejoin="round" stroke-dashoffset="" fill-rule="nonzero" marker-start="" marker-mid="" marker-end="" id="svg_9" points="359.27874286199165,195.4015806213376 360.8535460352491,196.97638379459505 360.8535460352491,197.76378538122378 360.8535460352491,198.55118696785252 360.8535460352491,199.33858855448125 360.8535460352491,200.12599014110998 360.8535460352491,200.9133917277387 " style="color: rgb(0, 0, 0);"/><polyline fill="none" stroke="#222222" stroke-width="2" stroke-linejoin="round" stroke-dashoffset="" fill-rule="nonzero" marker-start="" marker-mid="" marker-end="" id="svg_10" points="359.27874286199165,200.9133917277387 358.49134127536297,200.9133917277387 357.7039396887342,200.9133917277387 356.9165381021055,200.9133917277387 356.1291365154767,200.9133917277387 356.1291365154767,201.70079331436744 356.1291365154767,202.48819490099623 356.1291365154767,203.27559648762497 356.9165381021055,205.63780124751113 357.7039396887342,207.21260442076866 358.49134127536297,208.7874075940261 360.06614444862043,210.36221076728356 360.8535460352491,211.1496123539123 360.8535460352491,212.72441552716975 362.4283492085066,215.08662028705595 363.21575079513536,216.6614234603134 364.00315238176404,218.2362266335709 364.7905539683928,218.2362266335709 364.7905539683928,219.02362822019964 365.5779555550215,219.02362822019964 365.5779555550215,219.8110298068284 365.5779555550215,220.59843139345713 365.5779555550215,219.8110298068284 366.3653571416503,219.02362822019964 367.15275872827897,218.2362266335709 367.94016031490776,217.44882504694218 368.72756190153655,215.87402187368465 369.5149634881652,214.29921870042722 370.302365074794,211.93701394054102 371.0897666614227,211.93701394054102 371.8771682480515,209.57480918065482 373.45197142130894,208.0000060073974 373.45197142130894,205.63780124751113 374.2393730079376,204.8503996608824 374.2393730079376,203.27559648762497 374.2393730079376,202.48819490099623 373.45197142130894,201.70079331436744 372.66456983468015,201.70079331436744 371.8771682480515,201.70079331436744 371.0897666614227,201.70079331436744 370.302365074794,201.70079331436744 370.302365074794,202.48819490099623 370.302365074794,203.27559648762497 370.302365074794,204.0629980742537 370.302365074794,204.8503996608824 370.302365074794,205.63780124751113 369.5149634881652,205.63780124751113 369.5149634881652,207.21260442076866 368.72756190153655,208.7874075940261 367.94016031490776,208.7874075940261 367.94016031490776,209.57480918065482 367.94016031490776,210.36221076728356 367.94016031490776,211.1496123539123 367.15275872827897,211.93701394054102 366.3653571416503,211.93701394054102 364.7905539683928,211.1496123539123 364.7905539683928,210.36221076728356 364.00315238176404,210.36221076728356 364.00315238176404,209.57480918065482 364.00315238176404,208.7874075940261 363.21575079513536,208.0000060073974 363.21575079513536,206.42520283413992 362.4283492085066,204.8503996608824 362.4283492085066,204.0629980742537 361.6409476218779,203.27559648762497 361.6409476218779,202.48819490099623 360.8535460352491,202.48819490099623 360.8535460352491,201.70079331436744 " style="color: rgb(0, 0, 0);"/><polyline fill="none" stroke="#222222" stroke-width="2" stroke-linejoin="round" stroke-dashoffset="" fill-rule="nonzero" marker-start="" marker-mid="" marker-end="" id="svg_11" points="357.7039396887342,200.12599014110998 355.34173492884804,200.9133917277387 353.7669317555906,200.9133917277387 352.9795301689618,200.9133917277387 351.4047269957043,202.48819490099623 350.61732540907553,202.48819490099623 349.04252223581807,202.48819490099623 347.4677190625606,202.48819490099623 346.68031747593193,203.27559648762497 345.89291588930314,203.27559648762497 345.10551430267446,204.0629980742537 344.3181127160457,204.0629980742537 342.7433095427882,204.8503996608824 341.95590795615954,204.8503996608824 340.38110478290207,205.63780124751113 338.8063016096446,205.63780124751113 338.8063016096446,206.42520283413992 338.0189000230158,207.21260442076866 338.8063016096446,208.0000060073974 338.8063016096446,208.7874075940261 339.5937031962733,209.57480918065482 340.38110478290207,211.1496123539123 340.38110478290207,211.93701394054102 340.38110478290207,212.72441552716975 341.95590795615954,213.5118171137985 341.95590795615954,215.08662028705595 341.95590795615954,215.87402187368465 342.7433095427882,217.44882504694218 343.530711129417,217.44882504694218 343.530711129417,218.2362266335709 343.530711129417,219.02362822019964 " style="color: rgb(0, 0, 0);"/><polyline fill="none" stroke="#222222" stroke-width="2" stroke-linejoin="round" stroke-dashoffset="" fill-rule="nonzero" marker-start="" marker-mid="" marker-end="" id="svg_12" points="374.2393730079376,202.48819490099623 375.8141761811951,203.27559648762497 376.60157776782387,203.27559648762497 377.38897935445254,203.27559648762497 378.17638094108133,204.0629980742537 378.96378252771,204.0629980742537 379.7511841143388,204.0629980742537 380.5385857009675,204.0629980742537 381.32598728759626,204.0629980742537 382.11338887422494,204.0629980742537 382.9007904608537,204.0629980742537 383.6881920474824,204.0629980742537 383.6881920474824,204.8503996608824 384.4755936341112,204.8503996608824 385.26299522074,204.8503996608824 386.05039680736866,204.8503996608824 386.83779839399745,204.8503996608824 386.83779839399745,205.63780124751113 387.6251999806261,205.63780124751113 389.2000031538836,206.42520283413992 390.77480632714105,207.21260442076866 391.56220791376984,207.21260442076866 392.3496095003985,207.21260442076866 392.3496095003985,208.7874075940261 391.56220791376984,209.57480918065482 391.56220791376984,210.36221076728356 390.77480632714105,211.93701394054102 389.9874047405124,212.72441552716975 389.9874047405124,213.5118171137985 388.4126015672549,214.29921870042722 386.83779839399745,216.6614234603134 386.05039680736866,217.44882504694218 385.26299522074,218.2362266335709 385.26299522074,219.02362822019964 384.4755936341112,219.8110298068284 384.4755936341112,220.59843139345713 " style="color: rgb(0, 0, 0);"/><polyline fill="#eb1a1a" stroke="#222222" stroke-width="2" stroke-linejoin="round" stroke-dashoffset="" fill-rule="nonzero" marker-start="" marker-mid="" marker-end="" id="svg_13" points="343.530711129417,219.02362822019964 343.530711129417,230.83465201963065 343.530711129417,232.40945519288812 343.530711129417,234.77165995277429 343.530711129417,238.70866788591803 343.530711129417,241.85827423243296 343.530711129417,243.4330774056904 343.530711129417,244.22047899231913 343.530711129417,245.00788057894792 343.530711129417,245.79528216557665 343.530711129417,246.58268375220538 343.530711129417,247.3700853388341 343.530711129417,248.15748692546282 342.7433095427882,249.73229009872028 342.7433095427882,250.51969168534902 341.95590795615954,251.30709327197775 341.95590795615954,252.09449485860648 341.95590795615954,253.66929803186403 341.95590795615954,254.45669961849276 341.16850636953075,256.0315027917502 341.16850636953075,256.81890437837893 340.38110478290207,259.18110913826513 339.5937031962733,260.7559123115226 338.8063016096446,262.33071548478006 338.8063016096446,263.1181170714088 338.0189000230158,263.9055186580375 338.0189000230158,264.69292024466625 337.23149843638714,266.2677234179237 336.44409684975835,267.8425265911812 336.44409684975835,268.6299281778099 336.44409684975835,270.20473135106744 336.44409684975835,271.7795345243249 337.23149843638714,272.56693611095363 338.0189000230158,274.1417392842111 338.8063016096446,274.92914087083983 339.5937031962733,274.92914087083983 341.16850636953075,278.07874721735476 341.95590795615954,278.07874721735476 341.95590795615954,278.8661488039835 343.530711129417,279.6535503906122 346.68031747593193,280.44095197724096 347.4677190625606,280.44095197724096 349.82992382244686,281.2283535638697 350.61732540907553,281.2283535638697 352.1921285823331,281.2283535638697 352.9795301689618,281.2283535638697 354.55433334221925,281.2283535638697 356.1291365154767,281.2283535638697 357.7039396887342,281.2283535638697 358.49134127536297,281.2283535638697 360.06614444862043,281.2283535638697 360.8535460352491,281.2283535638697 362.4283492085066,281.2283535638697 363.21575079513536,281.2283535638697 367.15275872827897,279.6535503906122 367.94016031490776,278.8661488039835 370.302365074794,278.07874721735476 371.0897666614227,278.07874721735476 372.66456983468015,277.291345630726 373.45197142130894,276.5039440440973 374.2393730079376,275.71654245746856 375.8141761811951,274.92914087083983 377.38897935445254,274.92914087083983 378.96378252771,273.35433769758237 379.7511841143388,273.35433769758237 380.5385857009675,272.56693611095363 382.11338887422494,271.7795345243249 382.9007904608537,270.99213293769617 384.4755936341112,270.20473135106744 " style="color: rgb(0, 0, 0);" class="" fill-opacity="1"/><polyline fill="none" stroke="#222222" stroke-width="2" stroke-linejoin="round" stroke-dashoffset="" fill-rule="nonzero" marker-start="" marker-mid="" marker-end="" id="svg_14" points="382.11338887422494,219.8110298068284 382.11338887422494,226.89764408648702 382.11338887422494,229.2598488463732 382.11338887422494,230.04725043300192 382.11338887422494,232.40945519288812 382.11338887422494,233.19685677951685 382.11338887422494,233.98425836614558 382.11338887422494,234.77165995277429 382.11338887422494,238.70866788591803 382.11338887422494,239.49606947254676 382.11338887422494,240.2834710591755 382.11338887422494,241.85827423243296 382.11338887422494,242.6456758190617 382.9007904608537,244.22047899231913 383.6881920474824,245.00788057894792 383.6881920474824,246.58268375220538 383.6881920474824,247.3700853388341 383.6881920474824,248.15748692546282 383.6881920474824,249.73229009872028 383.6881920474824,250.51969168534902 383.6881920474824,251.30709327197775 383.6881920474824,252.09449485860648 383.6881920474824,252.8818964452352 383.6881920474824,253.66929803186403 383.6881920474824,255.24410120512147 383.6881920474824,256.0315027917502 383.6881920474824,256.81890437837893 383.6881920474824,258.3937075516364 383.6881920474824,259.18110913826513 383.6881920474824,259.96851072489386 383.6881920474824,261.5433138981513 383.6881920474824,263.9055186580375 383.6881920474824,265.480321831295 383.6881920474824,266.2677234179237 383.6881920474824,267.05512500455245 383.6881920474824,267.8425265911812 383.6881920474824,268.6299281778099 382.9007904608537,268.6299281778099 382.11338887422494,268.6299281778099 " style="color: rgb(0, 0, 0);"/><polyline fill="none" stroke="#222222" stroke-width="2" stroke-linejoin="round" stroke-dashoffset="" fill-rule="nonzero" marker-start="" marker-mid="" marker-end="" id="svg_15" points="391.56220791376984,208.0000060073974 394.71181426028477,215.87402187368465 394.71181426028477,217.44882504694218 395.49921584691344,221.38583298008587 396.28661743354223,225.3228409132295 397.0740190201709,225.3228409132295 397.8614206067997,226.89764408648702 397.0740190201709,226.89764408648702 396.28661743354223,226.89764408648702 395.49921584691344,226.89764408648702 394.71181426028477,226.89764408648702 393.1370110870273,226.89764408648702 392.3496095003985,226.89764408648702 390.77480632714105,226.89764408648702 389.9874047405124,226.89764408648702 388.4126015672549,227.68504567311572 387.6251999806261,227.68504567311572 386.83779839399745,228.47244725974446 386.05039680736866,229.2598488463732 385.26299522074,229.2598488463732 383.6881920474824,230.04725043300192 382.9007904608537,230.04725043300192 382.9007904608537,230.83465201963065 " style="color: rgb(0, 0, 0);"/><polyline fill="none" stroke="#222222" stroke-width="2" stroke-linejoin="round" stroke-dashoffset="" fill-rule="nonzero" marker-start="" marker-mid="" marker-end="" id="svg_16" points="336.44409684975835,207.21260442076866 332.50708891661463,211.1496123539123 331.71968732998596,213.5118171137985 330.93228574335717,215.08662028705595 330.1448841567285,215.87402187368465 329.3574825700997,216.6614234603134 329.3574825700997,217.44882504694218 328.57008098347103,219.02362822019964 327.78267939684224,219.02362822019964 327.78267939684224,219.8110298068284 326.99527781021357,221.38583298008587 326.2078762235848,222.1732345667146 325.4204746369561,222.96063615334333 324.6330730503273,223.74803773997203 324.6330730503273,224.53543932660077 326.2078762235848,224.53543932660077 326.99527781021357,225.3228409132295 328.57008098347103,226.89764408648702 329.3574825700997,226.89764408648702 330.1448841567285,227.68504567311572 331.71968732998596,228.47244725974446 332.50708891661463,228.47244725974446 333.2944905032434,228.47244725974446 334.0818920898722,228.47244725974446 334.8692936765009,228.47244725974446 335.6566952631297,229.2598488463732 336.44409684975835,229.2598488463732 337.23149843638714,229.2598488463732 338.8063016096446,229.2598488463732 340.38110478290207,229.2598488463732 341.95590795615954,229.2598488463732 343.530711129417,229.2598488463732 344.3181127160457,229.2598488463732 345.10551430267446,229.2598488463732 " style="color: rgb(0, 0, 0);"/><polyline fill="none" stroke="#222222" stroke-width="2" stroke-linejoin="round" stroke-dashoffset="" fill-rule="nonzero" marker-start="" marker-mid="" marker-end="" id="svg_17" points="391.56220791376984,209.57480918065482 393.924412673656,214.29921870042722 393.924412673656,215.87402187368465 394.71181426028477,216.6614234603134 395.49921584691344,217.44882504694218 395.49921584691344,219.02362822019964 395.49921584691344,219.8110298068284 396.28661743354223,219.8110298068284 396.28661743354223,220.59843139345713 396.28661743354223,221.38583298008587 396.28661743354223,222.1732345667146 396.28661743354223,222.96063615334333 396.28661743354223,223.74803773997203 396.28661743354223,226.1102424998583 395.49921584691344,226.89764408648702 394.71181426028477,226.89764408648702 393.924412673656,227.68504567311572 393.1370110870273,228.47244725974446 390.77480632714105,230.04725043300192 389.9874047405124,230.04725043300192 389.2000031538836,230.83465201963065 387.6251999806261,231.62205360625939 386.83779839399745,232.40945519288812 386.05039680736866,232.40945519288812 386.05039680736866,233.19685677951685 384.4755936341112,233.98425836614558 383.6881920474824,234.77165995277429 " style="color: rgb(0, 0, 0);"/><polyline fill="none" stroke="#222222" stroke-width="2" stroke-linejoin="round" stroke-dashoffset="" fill-rule="nonzero" marker-start="" marker-mid="" marker-end="" id="svg_18" points="381.32598728759626,221.38583298008587 382.9007904608537,231.62205360625939 382.9007904608537,232.40945519288812 382.9007904608537,233.19685677951685 383.6881920474824,233.98425836614558 383.6881920474824,235.55906153940302 383.6881920474824,236.34646312603184 384.4755936341112,237.13386471266057 384.4755936341112,237.9212662992893 384.4755936341112,238.70866788591803 385.26299522074,239.49606947254676 385.26299522074,240.2834710591755 385.26299522074,241.07087264580423 385.26299522074,241.85827423243296 385.26299522074,242.6456758190617 385.26299522074,243.4330774056904 386.05039680736866,245.79528216557665 386.05039680736866,246.58268375220538 386.05039680736866,247.3700853388341 386.05039680736866,248.94488851209155 386.05039680736866,249.73229009872028 386.05039680736866,250.51969168534902 386.05039680736866,251.30709327197775 386.05039680736866,252.8818964452352 386.05039680736866,253.66929803186403 386.05039680736866,254.45669961849276 386.05039680736866,256.0315027917502 386.05039680736866,256.81890437837893 386.05039680736866,258.3937075516364 386.05039680736866,259.18110913826513 386.05039680736866,260.7559123115226 386.05039680736866,261.5433138981513 386.05039680736866,262.33071548478006 386.05039680736866,263.9055186580375 386.05039680736866,265.480321831295 386.05039680736866,267.05512500455245 386.05039680736866,267.8425265911812 385.26299522074,269.41732976443865 384.4755936341112,271.7795345243249 384.4755936341112,272.56693611095363 384.4755936341112,274.1417392842111 383.6881920474824,275.71654245746856 383.6881920474824,276.5039440440973 382.11338887422494,277.291345630726 382.11338887422494,278.07874721735476 381.32598728759626,278.8661488039835 380.5385857009675,278.8661488039835 379.7511841143388,278.8661488039835 378.96378252771,279.6535503906122 378.17638094108133,279.6535503906122 377.38897935445254,279.6535503906122 376.60157776782387,279.6535503906122 375.0267745945664,279.6535503906122 374.2393730079376,279.6535503906122 373.45197142130894,279.6535503906122 372.66456983468015,279.6535503906122 371.8771682480515,279.6535503906122 371.0897666614227,279.6535503906122 369.5149634881652,279.6535503906122 367.94016031490776,279.6535503906122 367.15275872827897,279.6535503906122 366.3653571416503,279.6535503906122 365.5779555550215,279.6535503906122 363.21575079513536,279.6535503906122 361.6409476218779,279.6535503906122 359.27874286199165,279.6535503906122 357.7039396887342,279.6535503906122 356.1291365154767,279.6535503906122 354.55433334221925,278.8661488039835 " style="color: rgb(0, 0, 0);"/><polyline fill="none" stroke="#222222" stroke-width="2" stroke-linejoin="round" stroke-dashoffset="" fill-rule="nonzero" marker-start="" marker-mid="" marker-end="" id="svg_19" points="338.8063016096446,267.8425265911812 340.38110478290207,267.8425265911812 341.16850636953075,267.8425265911812 341.95590795615954,268.6299281778099 342.7433095427882,269.41732976443865 343.530711129417,269.41732976443865 344.3181127160457,269.41732976443865 345.10551430267446,270.20473135106744 345.89291588930314,270.99213293769617 346.68031747593193,270.99213293769617 349.04252223581807,271.7795345243249 349.82992382244686,271.7795345243249 350.61732540907553,271.7795345243249 352.9795301689618,272.56693611095363 353.7669317555906,272.56693611095363 355.34173492884804,272.56693611095363 357.7039396887342,273.35433769758237 359.27874286199165,273.35433769758237 361.6409476218779,273.35433769758237 362.4283492085066,273.35433769758237 363.21575079513536,273.35433769758237 364.7905539683928,273.35433769758237 366.3653571416503,273.35433769758237 367.15275872827897,273.35433769758237 368.72756190153655,273.35433769758237 371.0897666614227,273.35433769758237 371.8771682480515,273.35433769758237 372.66456983468015,273.35433769758237 374.2393730079376,272.56693611095363 375.0267745945664,272.56693611095363 377.38897935445254,270.99213293769617 378.96378252771,270.99213293769617 378.96378252771,269.41732976443865 379.7511841143388,269.41732976443865 380.5385857009675,269.41732976443865 381.32598728759626,268.6299281778099 382.9007904608537,267.8425265911812 382.9007904608537,267.05512500455245 " style="color: rgb(0, 0, 0);"/><polyline fill="none" stroke="#222222" stroke-width="2" stroke-linejoin="round" stroke-dashoffset="" fill-rule="nonzero" marker-start="" marker-mid="" marker-end="" id="svg_20" points="393.1370110870273,227.68504567311572 394.71181426028477,232.40945519288812 394.71181426028477,233.98425836614558 394.71181426028477,236.34646312603184 396.28661743354223,238.70866788591803 396.28661743354223,239.49606947254676 396.28661743354223,240.2834710591755 396.28661743354223,241.07087264580423 396.28661743354223,242.6456758190617 397.0740190201709,243.4330774056904 397.8614206067997,243.4330774056904 397.8614206067997,245.00788057894792 397.8614206067997,245.79528216557665 398.6488221934284,246.58268375220538 398.6488221934284,247.3700853388341 400.22362536668584,248.94488851209155 400.22362536668584,249.73229009872028 400.22362536668584,250.51969168534902 401.0110269533146,252.09449485860648 401.0110269533146,253.66929803186403 401.0110269533146,254.45669961849276 401.0110269533146,255.24410120512147 401.0110269533146,256.0315027917502 401.0110269533146,257.60630596500766 401.0110269533146,258.3937075516364 401.0110269533146,260.7559123115226 401.0110269533146,262.33071548478006 401.0110269533146,263.9055186580375 401.0110269533146,264.69292024466625 401.0110269533146,266.2677234179237 401.0110269533146,267.8425265911812 400.22362536668584,270.99213293769617 400.22362536668584,271.7795345243249 400.22362536668584,272.56693611095363 399.43622378005716,274.1417392842111 399.43622378005716,274.92914087083983 398.6488221934284,277.291345630726 398.6488221934284,278.07874721735476 397.8614206067997,280.44095197724096 397.8614206067997,282.0157551504984 397.8614206067997,283.5905583237559 397.0740190201709,283.5905583237559 " style="color: rgb(0, 0, 0);"/><polyline fill="none" stroke="#222222" stroke-width="2" stroke-linejoin="round" stroke-dashoffset="" fill-rule="nonzero" marker-start="" marker-mid="" marker-end="" id="svg_21" points="386.83779839399745,248.15748692546282 387.6251999806261,250.51969168534902 387.6251999806261,251.30709327197775 387.6251999806261,252.8818964452352 388.4126015672549,254.45669961849276 389.2000031538836,255.24410120512147 389.2000031538836,256.0315027917502 389.2000031538836,257.60630596500766 389.2000031538836,258.3937075516364 389.2000031538836,259.18110913826513 389.2000031538836,259.96851072489386 389.9874047405124,260.7559123115226 390.77480632714105,261.5433138981513 390.77480632714105,262.33071548478006 390.77480632714105,263.1181170714088 390.77480632714105,263.9055186580375 390.77480632714105,264.69292024466625 390.77480632714105,266.2677234179237 390.77480632714105,267.05512500455245 390.77480632714105,268.6299281778099 390.77480632714105,269.41732976443865 390.77480632714105,270.20473135106744 390.77480632714105,271.7795345243249 390.77480632714105,272.56693611095363 390.77480632714105,273.35433769758237 390.77480632714105,274.92914087083983 390.77480632714105,275.71654245746856 390.77480632714105,277.291345630726 390.77480632714105,278.07874721735476 389.9874047405124,278.07874721735476 389.2000031538836,278.07874721735476 387.6251999806261,279.6535503906122 386.83779839399745,279.6535503906122 386.05039680736866,279.6535503906122 385.26299522074,280.44095197724096 384.4755936341112,280.44095197724096 382.9007904608537,282.0157551504984 382.9007904608537,282.80315673712715 382.11338887422494,285.16536149701335 381.32598728759626,285.16536149701335 381.32598728759626,285.9527630836421 381.32598728759626,286.7401646702709 381.32598728759626,289.10236943015707 382.11338887422494,289.8897710167858 382.9007904608537,289.8897710167858 384.4755936341112,290.67717260341453 386.05039680736866,291.46457419004327 386.83779839399745,291.46457419004327 387.6251999806261,291.46457419004327 389.2000031538836,291.46457419004327 389.9874047405124,291.46457419004327 390.77480632714105,291.46457419004327 392.3496095003985,291.46457419004327 393.924412673656,290.67717260341453 396.28661743354223,289.10236943015707 397.8614206067997,286.7401646702709 398.6488221934284,283.5905583237559 400.22362536668584,280.44095197724096 400.22362536668584,279.6535503906122 400.22362536668584,278.8661488039835 " style="color: rgb(0, 0, 0);"/><polyline fill="none" stroke="#222222" stroke-width="2" stroke-linejoin="round" stroke-dashoffset="" fill-rule="nonzero" marker-start="" marker-mid="" marker-end="" id="svg_22" points="328.57008098347103,226.1102424998583 327.78267939684224,230.04725043300192 326.99527781021357,232.40945519288812 325.4204746369561,236.34646312603184 325.4204746369561,237.9212662992893 324.6330730503273,239.49606947254676 324.6330730503273,240.2834710591755 323.84567146369864,241.85827423243296 323.05826987706985,245.00788057894792 323.05826987706985,247.3700853388341 323.05826987706985,249.73229009872028 323.05826987706985,252.09449485860648 323.05826987706985,254.45669961849276 323.05826987706985,255.24410120512147 323.05826987706985,256.0315027917502 323.05826987706985,256.81890437837893 322.2708682904412,257.60630596500766 322.2708682904412,258.3937075516364 322.2708682904412,259.18110913826513 322.2708682904412,259.96851072489386 321.4834667038124,261.5433138981513 " style="color: rgb(0, 0, 0);"/><polyline fill="none" stroke="#222222" stroke-width="2" stroke-linejoin="round" stroke-dashoffset="" fill-rule="nonzero" marker-start="" marker-mid="" marker-end="" id="svg_23" points="338.0189000230158,229.2598488463732 336.44409684975835,234.77165995277429 335.6566952631297,235.55906153940302 334.8692936765009,236.34646312603184 334.8692936765009,237.13386471266057 334.0818920898722,238.70866788591803 333.2944905032434,241.07087264580423 333.2944905032434,241.85827423243296 333.2944905032434,242.6456758190617 331.71968732998596,245.00788057894792 331.71968732998596,245.79528216557665 331.71968732998596,246.58268375220538 330.93228574335717,248.15748692546282 330.1448841567285,248.94488851209155 330.1448841567285,249.73229009872028 330.1448841567285,250.51969168534902 330.1448841567285,252.09449485860648 330.1448841567285,252.8818964452352 330.1448841567285,253.66929803186403 330.1448841567285,254.45669961849276 330.1448841567285,255.24410120512147 330.1448841567285,256.0315027917502 330.1448841567285,256.81890437837893 330.1448841567285,258.3937075516364 330.1448841567285,259.18110913826513 330.1448841567285,259.96851072489386 330.1448841567285,262.33071548478006 330.1448841567285,263.9055186580375 330.1448841567285,265.480321831295 330.1448841567285,267.05512500455245 330.1448841567285,268.6299281778099 330.1448841567285,269.41732976443865 330.1448841567285,270.20473135106744 330.1448841567285,270.99213293769617 330.1448841567285,271.7795345243249 330.1448841567285,272.56693611095363 " style="color: rgb(0, 0, 0);"/><polyline fill="none" stroke="#222222" stroke-width="2" stroke-linejoin="round" stroke-dashoffset="" fill-rule="nonzero" marker-start="" marker-mid="" marker-end="" id="svg_24" points="322.2708682904412,245.79528216557665 322.2708682904412,247.3700853388341 322.2708682904412,248.15748692546282 322.2708682904412,248.94488851209155 321.4834667038124,249.73229009872028 320.6960651171837,250.51969168534902 320.6960651171837,251.30709327197775 320.6960651171837,252.09449485860648 320.6960651171837,252.8818964452352 320.6960651171837,254.45669961849276 320.6960651171837,255.24410120512147 319.9086635305549,256.0315027917502 319.9086635305549,256.81890437837893 319.9086635305549,257.60630596500766 319.9086635305549,258.3937075516364 319.9086635305549,260.7559123115226 319.9086635305549,261.5433138981513 319.9086635305549,262.33071548478006 319.9086635305549,263.1181170714088 319.9086635305549,266.2677234179237 319.9086635305549,267.05512500455245 320.6960651171837,267.8425265911812 320.6960651171837,269.41732976443865 321.4834667038124,270.99213293769617 321.4834667038124,271.7795345243249 322.2708682904412,273.35433769758237 323.05826987706985,274.1417392842111 323.05826987706985,274.92914087083983 323.05826987706985,275.71654245746856 323.05826987706985,277.291345630726 323.05826987706985,278.07874721735476 323.05826987706985,278.8661488039835 323.84567146369864,280.44095197724096 324.6330730503273,281.2283535638697 324.6330730503273,282.80315673712715 324.6330730503273,283.5905583237559 " style="color: rgb(0, 0, 0);"/><polyline fill="none" stroke="#222222" stroke-width="2" stroke-linejoin="round" stroke-dashoffset="" fill-rule="nonzero" marker-start="" marker-mid="" marker-end="" id="svg_25" points="329.3574825700997,269.41732976443865 329.3574825700997,272.56693611095363 330.1448841567285,272.56693611095363 330.1448841567285,273.35433769758237 330.1448841567285,274.92914087083983 330.1448841567285,275.71654245746856 330.93228574335717,275.71654245746856 331.71968732998596,275.71654245746856 332.50708891661463,277.291345630726 333.2944905032434,277.291345630726 334.0818920898722,278.07874721735476 334.0818920898722,278.8661488039835 334.8692936765009,281.2283535638697 334.8692936765009,282.0157551504984 334.8692936765009,282.80315673712715 334.8692936765009,283.5905583237559 334.8692936765009,284.3779599103846 334.8692936765009,285.16536149701335 334.8692936765009,286.7401646702709 334.8692936765009,287.5275662568996 334.8692936765009,288.31496784352834 334.8692936765009,289.10236943015707 334.8692936765009,289.8897710167858 333.2944905032434,290.67717260341453 333.2944905032434,291.46457419004327 332.50708891661463,292.251975776672 331.71968732998596,292.251975776672 330.93228574335717,292.251975776672 330.1448841567285,292.251975776672 329.3574825700997,292.251975776672 328.57008098347103,292.251975776672 327.78267939684224,292.251975776672 326.99527781021357,292.251975776672 326.2078762235848,292.251975776672 325.4204746369561,292.251975776672 323.84567146369864,291.46457419004327 323.05826987706985,291.46457419004327 322.2708682904412,290.67717260341453 322.2708682904412,289.8897710167858 321.4834667038124,288.31496784352834 321.4834667038124,287.5275662568996 321.4834667038124,286.7401646702709 320.6960651171837,285.9527630836421 320.6960651171837,284.3779599103846 319.9086635305549,283.5905583237559 319.9086635305549,282.80315673712715 319.9086635305549,282.0157551504984 319.9086635305549,280.44095197724096 319.9086635305549,279.6535503906122 319.9086635305549,278.8661488039835 319.9086635305549,277.291345630726 319.9086635305549,276.5039440440973 319.9086635305549,275.71654245746856 319.12126194392624,272.56693611095363 318.33386035729745,270.20473135106744 318.33386035729745,269.41732976443865 318.33386035729745,268.6299281778099 318.33386035729745,267.05512500455245 318.33386035729745,266.2677234179237 318.33386035729745,265.480321831295 " style="color: rgb(0, 0, 0);"/><polyline fill="#1a1aeb" stroke="#222222" stroke-width="2" stroke-linejoin="round" stroke-dashoffset="" fill-rule="nonzero" marker-start="" marker-mid="" marker-end="" id="svg_26" points="340.38110478290207,273.35433769758237 338.8063016096446,293.82677894992946 338.8063016096446,296.9763852964444 338.8063016096446,303.2755979894743 338.0189000230158,308.78740909587543 337.23149843638714,310.3622122691329 337.23149843638714,313.5118186156478 337.23149843638714,317.4488265487915 337.23149843638714,320.5984328953065 337.23149843638714,322.17323606856394 337.23149843638714,323.7480392418214 337.23149843638714,324.53544082845013 336.44409684975835,325.32284241507887 335.6566952631297,325.32284241507887 333.2944905032434,326.1102440017076 321.4834667038124,330.83465352148 310.45984449101013,334.77166145462365 307.3102381444952,335.5590630412524 308.0976397311239,335.5590630412524 308.88504131775267,335.5590630412524 314.39685242415374,335.5590630412524 316.75905718404,335.5590630412524 322.2708682904412,335.5590630412524 325.4204746369561,334.77166145462365 330.1448841567285,333.9842598679949 332.50708891661463,333.1968582813662 338.8063016096446,332.40945669473746 345.89291588930314,330.83465352148 349.82992382244686,330.04725193485126 350.61732540907553,330.04725193485126 351.4047269957043,329.2598503482225 351.4047269957043,327.68504717496506 351.4047269957043,326.89764558833633 351.4047269957043,326.1102440017076 351.4047269957043,325.32284241507887 351.4047269957043,322.96063765519267 351.4047269957043,321.3858344819352 352.1921285823331,317.4488265487915 352.1921285823331,315.874023375534 352.1921285823331,314.29922020227656 352.9795301689618,311.14961385576163 352.9795301689618,309.57481068250416 352.9795301689618,308.0000075092467 352.9795301689618,307.21260592261797 353.7669317555906,305.6378027493605 353.7669317555906,304.85040116273177 354.55433334221925,302.4881964028455 354.55433334221925,300.91339322958805 354.55433334221925,299.3385900563306 355.34173492884804,297.7637868830731 355.34173492884804,296.18898370981566 356.1291365154767,295.4015821231869 356.1291365154767,293.82677894992946 356.1291365154767,293.03937736330073 356.1291365154767,292.251975776672 356.1291365154767,291.46457419004327 356.1291365154767,290.67717260341453 356.9165381021055,290.67717260341453 357.7039396887342,290.67717260341453 358.49134127536297,290.67717260341453 359.27874286199165,290.67717260341453 360.06614444862043,290.67717260341453 360.8535460352491,290.67717260341453 362.4283492085066,290.67717260341453 363.21575079513536,290.67717260341453 364.00315238176404,290.67717260341453 364.7905539683928,290.67717260341453 366.3653571416503,290.67717260341453 367.15275872827897,290.67717260341453 367.94016031490776,290.67717260341453 368.72756190153655,290.67717260341453 369.5149634881652,290.67717260341453 369.5149634881652,291.46457419004327 369.5149634881652,292.251975776672 369.5149634881652,293.82677894992946 369.5149634881652,294.6141805365582 369.5149634881652,297.7637868830731 369.5149634881652,300.91339322958805 369.5149634881652,304.06299957610304 369.5149634881652,306.42520433598924 369.5149634881652,309.57481068250416 369.5149634881652,311.14961385576163 369.5149634881652,312.7244170290191 369.5149634881652,314.29922020227656 369.5149634881652,316.66142496216276 369.5149634881652,319.8110313086777 369.5149634881652,322.17323606856394 369.5149634881652,322.96063765519267 369.5149634881652,323.7480392418214 369.5149634881652,324.53544082845013 369.5149634881652,325.32284241507887 369.5149634881652,326.89764558833633 369.5149634881652,328.4724487615938 370.302365074794,330.04725193485126 371.0897666614227,330.04725193485126 372.66456983468015,330.83465352148 374.2393730079376,331.6220551081087 376.60157776782387,331.6220551081087 378.17638094108133,331.6220551081087 379.7511841143388,332.40945669473746 380.5385857009675,332.40945669473746 382.9007904608537,333.1968582813662 386.83779839399745,334.77166145462365 389.2000031538836,334.77166145462365 393.1370110870273,336.3464646278811 394.71181426028477,336.3464646278811 397.8614206067997,336.3464646278811 398.6488221934284,336.3464646278811 399.43622378005716,336.3464646278811 401.0110269533146,336.3464646278811 401.7984285399434,336.3464646278811 402.5858301265721,336.3464646278811 401.7984285399434,334.77166145462365 400.22362536668584,333.9842598679949 397.0740190201709,332.40945669473746 394.71181426028477,330.83465352148 393.1370110870273,330.83465352148 389.9874047405124,328.4724487615938 388.4126015672549,327.68504717496506 386.83779839399745,326.1102440017076 386.05039680736866,326.1102440017076 385.26299522074,325.32284241507887 383.6881920474824,324.53544082845013 382.9007904608537,323.7480392418214 382.11338887422494,323.7480392418214 381.32598728759626,323.7480392418214 381.32598728759626,322.96063765519267 381.32598728759626,322.17323606856394 380.5385857009675,321.3858344819352 380.5385857009675,319.8110313086777 380.5385857009675,318.2362281354202 380.5385857009675,317.4488265487915 380.5385857009675,315.0866217889053 380.5385857009675,314.29922020227656 379.7511841143388,313.5118186156478 379.7511841143388,312.7244170290191 379.7511841143388,311.93701544239036 378.96378252771,310.3622122691329 378.96378252771,308.78740909587543 378.96378252771,307.21260592261797 378.96378252771,304.85040116273177 378.96378252771,302.4881964028455 378.96378252771,300.91339322958805 378.96378252771,300.1259916429593 378.96378252771,299.3385900563306 378.96378252771,297.7637868830731 378.96378252771,296.18898370981566 378.96378252771,293.82677894992946 378.96378252771,293.03937736330073 378.96378252771,292.251975776672 378.96378252771,290.67717260341453 378.96378252771,289.10236943015707 378.96378252771,288.31496784352834 378.96378252771,287.5275662568996 378.96378252771,285.9527630836421 378.96378252771,285.16536149701335 378.96378252771,284.3779599103846 378.96378252771,283.5905583237559 378.96378252771,282.80315673712715 378.96378252771,282.0157551504984 378.96378252771,281.2283535638697 378.96378252771,280.44095197724096 378.96378252771,279.6535503906122 378.96378252771,278.8661488039835 378.96378252771,278.07874721735476 378.96378252771,277.291345630726 378.96378252771,276.5039440440973 " style="color: rgb(0, 0, 0);" class="" fill-opacity="1"/><polyline fill="none" stroke="#222222" stroke-width="2" stroke-linejoin="round" stroke-dashoffset="" fill-rule="nonzero" marker-start="" marker-mid="" marker-end="" id="svg_27" points="312.0346476642676,137.13386321081123 309.67244290438134,133.98425686429624 308.88504131775267,133.1968552776675 307.3102381444952,133.1968552776675 306.5228365578664,132.40945369103878 305.73543497123774,132.40945369103878 304.1606317979803,131.62205210441005 303.3732302113515,131.62205210441005 302.5858286247228,131.62205210441005 301.798427038094,131.62205210441005 301.01102545146534,131.62205210441005 300.22362386483655,131.62205210441005 299.43622227820777,131.62205210441005 297.8614191049503,131.62205210441005 297.0740175183216,132.40945369103878 296.28661593169284,133.1968552776675 294.71181275843537,133.98425686429624 294.71181275843537,134.77165845092497 293.9244111718067,135.55906003755376 293.9244111718067,136.3464616241825 292.34960799854923,138.7086663840687 292.34960799854923,139.49606797069742 292.34960799854923,141.0708711439549 292.34960799854923,141.85827273058362 292.34960799854923,142.64567431721235 292.34960799854923,143.4330759038411 292.34960799854923,145.00787907709855 292.34960799854923,145.79528066372728 292.34960799854923,148.15748542361348 292.34960799854923,148.9448870102422 292.34960799854923,149.73228859687094 292.34960799854923,151.3070917701284 292.34960799854923,152.09449335675714 292.34960799854923,152.88189494338593 293.1370095851779,152.88189494338593 293.9244111718067,155.24409970327213 294.71181275843537,157.60630446315832 295.49921434506416,158.39370604978706 296.28661593169284,159.96850922304452 297.0740175183216,160.75591080967325 298.6488206915791,163.11811556955945 300.22362386483655,164.69291874281691 301.798427038094,165.48032032944565 301.798427038094,166.26772191607438 302.5858286247228,166.26772191607438 303.3732302113515,166.26772191607438 304.94803338460895,167.0551235027031 305.73543497123774,167.0551235027031 307.3102381444952,167.84252508933184 308.0976397311239,167.84252508933184 308.88504131775267,167.84252508933184 309.67244290438134,167.84252508933184 310.45984449101013,167.84252508933184 311.2472460776388,167.84252508933184 312.0346476642676,167.84252508933184 312.82204925089627,167.84252508933184 313.60945083752506,167.84252508933184 315.9716555974112,167.84252508933184 316.75905718404,167.84252508933184 317.5464587706688,167.0551235027031 " style="color: rgb(0, 0, 0);"/><polyline fill="none" stroke="#222222" stroke-width="2" stroke-linejoin="round" stroke-dashoffset="" fill-rule="nonzero" marker-start="" marker-mid="" marker-end="" id="svg_28" points="422.27086979229045,126.11024099800892 423.8456729655479,126.11024099800892 426.20787772543423,126.11024099800892 428.5700824853203,126.11024099800892 430.93228724520657,126.11024099800892 434.0818935917215,126.11024099800892 434.86929517835034,126.11024099800892 435.65669676497896,126.11024099800892 436.4440983516078,126.11024099800892 438.01890152486527,126.89764258463765 440.38110628475135,127.68504417126638 441.16850787138014,129.25984734452385 441.9559094580088,130.04724893115258 442.7433110446376,131.62205210441005 443.5307126312663,132.40945369103878 443.5307126312663,134.77165845092497 443.5307126312663,137.92126479743996 443.5307126312663,139.49606797069742 443.5307126312663,140.28346955732616 443.5307126312663,141.0708711439549 443.5307126312663,143.4330759038411 442.7433110446376,144.22047749046982 441.9559094580088,145.79528066372728 441.9559094580088,146.58268225035602 441.16850787138014,147.37008383698475 441.16850787138014,148.9448870102422 440.38110628475135,148.9448870102422 438.8063031114939,149.73228859687094 438.01890152486527,149.73228859687094 436.4440983516078,150.51969018349968 434.86929517835034,151.3070917701284 433.2944920050927,152.09449335675714 431.71968883183524,152.88189494338593 430.93228724520657,152.88189494338593 428.5700824853203,153.66929653001466 427.7826808986917,154.4566981166434 426.99527931206285,154.4566981166434 426.20787772543423,154.4566981166434 425.4204761388054,154.4566981166434 424.63307455217665,154.4566981166434 " style="color: rgb(0, 0, 0);"/><polyline fill="none" stroke="#222222" stroke-width="2" stroke-linejoin="round" stroke-dashoffset="" fill-rule="nonzero" marker-start="" marker-mid="" marker-end="" id="svg_29" points="327.78267939684224,105.63779974566181 331.71968732998596,112.72441402532041 332.50708891661463,114.29921719857786 334.0818920898722,115.08661878520664 335.6566952631297,115.08661878520664 335.6566952631297,115.87402037183537 336.44409684975835,115.87402037183537 338.0189000230158,115.87402037183537 339.5937031962733,117.44882354509284 340.38110478290207,117.44882354509284 342.7433095427882,118.23622513172155 344.3181127160457,119.02362671835029 345.10551430267446,119.02362671835029 345.89291588930314,119.02362671835029 346.68031747593193,119.02362671835029 347.4677190625606,119.02362671835029 348.2551206491894,119.81102830497905 350.61732540907553,120.59842989160776 352.1921285823331,120.59842989160776 356.1291365154767,121.3858314782365 356.9165381021055,121.3858314782365 359.27874286199165,122.17323306486523 360.06614444862043,122.17323306486523 362.4283492085066,122.17323306486523 363.21575079513536,122.17323306486523 365.5779555550215,122.17323306486523 367.15275872827897,122.17323306486523 367.94016031490776,122.17323306486523 368.72756190153655,122.17323306486523 369.5149634881652,122.17323306486523 370.302365074794,122.17323306486523 373.45197142130894,122.17323306486523 376.60157776782387,122.17323306486523 381.32598728759626,122.17323306486523 386.83779839399745,122.17323306486523 389.2000031538836,122.17323306486523 390.77480632714105,122.17323306486523 392.3496095003985,121.3858314782365 393.924412673656,121.3858314782365 396.28661743354223,120.59842989160776 398.6488221934284,119.81102830497905 401.0110269533146,119.02362671835029 405.73543647308696,117.44882354509284 407.3102396463444,116.6614219584641 412.03464916611694,114.29921719857786 412.82205075274567,113.51181561194915 413.6094523393744,112.72441402532041 414.3968539260031,111.93701243869168 414.3968539260031,111.14961085206295 414.3968539260031,110.36220926543423 " style="color: rgb(0, 0, 0);"/><polyline fill="none" stroke="#222222" stroke-width="2" stroke-linejoin="round" stroke-dashoffset="" fill-rule="nonzero" marker-start="" marker-mid="" marker-end="" id="svg_30" points="328.57008098347103,104.85039815903305 323.05826987706985,85.95276007994343 323.05826987706985,84.37795690668597 322.2708682904412,80.44094897354228 322.2708682904412,79.65354738691354 321.4834667038124,77.29134262702735 321.4834667038124,75.71653945376988 320.6960651171837,74.14173628051242 319.12126194392624,70.20472834736873 319.12126194392624,69.41732676074 319.12126194392624,67.84252358748253 319.12126194392624,67.0551220008538 319.12126194392624,67.84252358748253 319.9086635305549,68.62992517411126 319.9086635305549,70.99212993399746 320.6960651171837,71.7795315206262 321.4834667038124,72.56693310725495 321.4834667038124,74.14173628051242 322.2708682904412,76.50394104039862 323.05826987706985,78.07874421365608 323.84567146369864,79.65354738691354 324.6330730503273,80.44094897354228 325.4204746369561,82.8031537334285 326.99527781021357,85.1653584933147 326.99527781021357,85.95276007994343 327.78267939684224,87.5275632532009 328.57008098347103,88.31496483982963 328.57008098347103,89.10236642645839 329.3574825700997,89.10236642645839 329.3574825700997,89.88976801308712 330.1448841567285,92.25197277297332 330.93228574335717,92.25197277297332 331.71968732998596,93.03937435960205 332.50708891661463,95.40157911948825 333.2944905032434,96.18898070611698 334.0818920898722,96.97638229274571 334.0818920898722,97.76378387937447 334.8692936765009,98.5511854660032 335.6566952631297,98.5511854660032 336.44409684975835,98.5511854660032 337.23149843638714,99.33858705263194 338.0189000230158,99.33858705263194 338.8063016096446,99.33858705263194 340.38110478290207,99.33858705263194 341.16850636953075,98.5511854660032 341.95590795615954,96.18898070611698 342.7433095427882,96.18898070611698 343.530711129417,95.40157911948825 345.10551430267446,93.03937435960205 348.2551206491894,89.88976801308712 351.4047269957043,87.5275632532009 352.9795301689618,85.95276007994343 353.7669317555906,85.1653584933147 354.55433334221925,84.37795690668597 355.34173492884804,83.59055532005723 356.9165381021055,82.01575214679977 361.6409476218779,77.29134262702735 362.4283492085066,76.50394104039862 363.21575079513536,75.71653945376988 364.7905539683928,74.14173628051242 " style="color: rgb(0, 0, 0);"/><polyline fill="none" stroke="#222222" stroke-width="2" stroke-linejoin="round" stroke-dashoffset="" fill-rule="nonzero" marker-start="" marker-mid="" marker-end="" id="svg_31" points="365.5779555550215,74.14173628051242 366.3653571416503,73.35433469388369 367.15275872827897,72.56693310725495 368.72756190153655,71.7795315206262 371.8771682480515,69.41732676074 374.2393730079376,68.62992517411126 374.2393730079376,69.41732676074 374.2393730079376,70.20472834736873 374.2393730079376,71.7795315206262 375.0267745945664,74.14173628051242 375.8141761811951,74.92913786714115 376.60157776782387,78.07874421365608 377.38897935445254,78.86614580028481 378.17638094108133,80.44094897354228 378.96378252771,81.22835056017104 378.96378252771,82.8031537334285 380.5385857009675,83.59055532005723 380.5385857009675,84.37795690668597 381.32598728759626,85.1653584933147 382.9007904608537,86.74016166657216 382.9007904608537,87.5275632532009 383.6881920474824,87.5275632532009 384.4755936341112,88.31496483982963 384.4755936341112,89.10236642645839 385.26299522074,89.88976801308712 386.05039680736866,91.46457118634459 387.6251999806261,91.46457118634459 387.6251999806261,92.25197277297332 388.4126015672549,93.03937435960205 389.2000031538836,93.82677594623078 389.9874047405124,94.61417753285951 390.77480632714105,95.40157911948825 391.56220791376984,95.40157911948825 391.56220791376984,96.18898070611698 392.3496095003985,96.18898070611698 393.924412673656,96.97638229274571 393.924412673656,97.76378387937447 395.49921584691344,98.5511854660032 395.49921584691344,99.33858705263194 397.0740190201709,99.33858705263194 397.8614206067997,99.33858705263194 399.43622378005716,99.33858705263194 400.22362536668584,99.33858705263194 401.0110269533146,99.33858705263194 401.0110269533146,98.5511854660032 402.5858301265721,97.76378387937447 403.3732317132009,96.97638229274571 404.16063329982956,95.40157911948825 404.94803488645834,95.40157911948825 404.94803488645834,94.61417753285951 405.73543647308696,93.82677594623078 407.3102396463444,91.46457118634459 408.8850428196019,90.67716959971585 409.67244440623074,89.10236642645839 409.67244440623074,87.5275632532009 410.45984599285947,86.74016166657216 411.2472475794882,85.95276007994343 412.03464916611694,84.37795690668597 412.82205075274567,83.59055532005723 412.82205075274567,82.8031537334285 413.6094523393744,81.22835056017104 414.3968539260031,80.44094897354228 414.3968539260031,79.65354738691354 415.1842555126318,78.07874421365608 415.1842555126318,77.29134262702735 415.97165709926054,76.50394104039862 415.97165709926054,74.92913786714115 416.7590586858893,74.14173628051242 416.7590586858893,72.56693310725495 416.7590586858893,71.7795315206262 417.546460272518,70.99212993399746 418.33386185914685,70.20472834736873 418.33386185914685,69.41732676074 418.33386185914685,68.62992517411126 418.33386185914685,67.0551220008538 419.1212634457756,66.26772041422507 419.1212634457756,65.48031882759634 419.1212634457756,66.26772041422507 419.1212634457756,67.0551220008538 419.1212634457756,68.62992517411126 419.1212634457756,69.41732676074 419.1212634457756,70.20472834736873 419.1212634457756,71.7795315206262 419.1212634457756,73.35433469388369 419.1212634457756,74.14173628051242 419.1212634457756,75.71653945376988 419.1212634457756,76.50394104039862 419.1212634457756,78.86614580028481 419.1212634457756,79.65354738691354 419.1212634457756,80.44094897354228 419.1212634457756,81.22835056017104 419.1212634457756,82.8031537334285 419.1212634457756,83.59055532005723 419.1212634457756,84.37795690668597 419.1212634457756,85.1653584933147 419.1212634457756,85.95276007994343 419.1212634457756,86.74016166657216 419.1212634457756,87.5275632532009 419.1212634457756,89.10236642645839 419.1212634457756,90.67716959971585 419.1212634457756,92.25197277297332 419.1212634457756,93.82677594623078 419.1212634457756,96.18898070611698 419.1212634457756,96.97638229274571 417.546460272518,98.5511854660032 417.546460272518,99.33858705263194 417.546460272518,100.9133902258894 417.546460272518,101.70079181251813 417.546460272518,102.48819339914687 417.546460272518,103.2755949857756 415.97165709926054,104.85039815903305 415.97165709926054,105.63779974566181 415.97165709926054,106.42520133229056 415.97165709926054,107.21260291891929 415.97165709926054,108.00000450554802 415.97165709926054,108.78740609217674 415.1842555126318,109.5748076788055 414.3968539260031,111.14961085206295 413.6094523393744,111.93701243869168 " style="color: rgb(0, 0, 0);"/><polyline fill="none" stroke="#222222" stroke-width="2" stroke-linejoin="round" stroke-dashoffset="" fill-rule="nonzero" marker-start="" marker-mid="" marker-end="" id="svg_32" points="331.71968732998596,90.67716959971585 334.8692936765009,82.01575214679977 334.8692936765009,81.22835056017104 336.44409684975835,79.65354738691354 336.44409684975835,78.86614580028481 338.0189000230158,76.50394104039862 338.8063016096446,75.71653945376988 339.5937031962733,74.14173628051242 341.16850636953075,73.35433469388369 342.7433095427882,70.20472834736873 342.7433095427882,69.41732676074 344.3181127160457,68.62992517411126 345.10551430267446,67.84252358748253 " style="color: rgb(0, 0, 0);"/><polyline fill="none" stroke="#222222" stroke-width="2" stroke-linejoin="round" stroke-dashoffset="" fill-rule="nonzero" marker-start="" marker-mid="" marker-end="" id="svg_33" points="345.89291588930314,67.0551220008538 345.89291588930314,67.0551220008538 346.68031747593193,67.0551220008538 346.68031747593193,67.84252358748253 347.4677190625606,70.20472834736873 348.2551206491894,71.7795315206262 349.04252223581807,74.92913786714115 349.82992382244686,74.92913786714115 349.82992382244686,77.29134262702735 349.82992382244686,78.07874421365608 350.61732540907553,78.86614580028481 351.4047269957043,79.65354738691354 352.1921285823331,79.65354738691354 353.7669317555906,79.65354738691354 354.55433334221925,79.65354738691354 355.34173492884804,79.65354738691354 " style="color: rgb(0, 0, 0);"/><polyline fill="none" stroke="#222222" stroke-width="2" stroke-linejoin="round" stroke-dashoffset="" fill-rule="nonzero" marker-start="" marker-mid="" marker-end="" id="svg_34" points="404.16063329982956,85.95276007994343 401.0110269533146,79.65354738691354 399.43622378005716,77.29134262702735 398.6488221934284,76.50394104039862 397.8614206067997,76.50394104039862 397.0740190201709,74.92913786714115 396.28661743354223,74.14173628051242 395.49921584691344,73.35433469388369 394.71181426028477,72.56693310725495 393.924412673656,70.99212993399746 393.1370110870273,70.20472834736873 393.1370110870273,69.41732676074 392.3496095003985,69.41732676074 391.56220791376984,69.41732676074 390.77480632714105,70.99212993399746 389.9874047405124,73.35433469388369 389.2000031538836,76.50394104039862 387.6251999806261,78.07874421365608 387.6251999806261,79.65354738691354 386.83779839399745,81.22835056017104 386.83779839399745,82.01575214679977 386.05039680736866,82.01575214679977 386.05039680736866,82.8031537334285 385.26299522074,83.59055532005723 385.26299522074,84.37795690668597 383.6881920474824,84.37795690668597 383.6881920474824,85.95276007994343 382.9007904608537,85.95276007994343 " style="color: rgb(0, 0, 0);"/><polyline fill="none" stroke="#222222" stroke-width="2" stroke-linejoin="round" stroke-dashoffset="" fill-rule="nonzero" marker-start="" marker-mid="" marker-end="" id="svg_35" points="356.1291365154767,81.22835056017104 354.55433334221925,80.44094897354228 352.9795301689618,79.65354738691354 351.4047269957043,79.65354738691354 351.4047269957043,78.86614580028481 350.61732540907553,78.86614580028481 350.61732540907553,78.07874421365608 349.82992382244686,78.07874421365608 349.82992382244686,76.50394104039862 349.82992382244686,75.71653945376988 349.04252223581807,74.92913786714115 348.2551206491894,73.35433469388369 347.4677190625606,73.35433469388369 347.4677190625606,71.7795315206262 347.4677190625606,70.99212993399746 345.89291588930314,69.41732676074 " style="color: rgb(0, 0, 0);"/><polyline fill="none" stroke="#222222" stroke-width="2" stroke-linejoin="round" stroke-dashoffset="" fill-rule="nonzero" marker-start="" marker-mid="" marker-end="" id="svg_36" points="345.10551430267446,68.62992517411126 343.530711129417,70.99212993399746 343.530711129417,71.7795315206262 345.10551430267446,71.7795315206262 345.10551430267446,72.56693310725495 345.10551430267446,73.35433469388369 344.3181127160457,73.35433469388369 342.7433095427882,74.92913786714115 341.16850636953075,76.50394104039862 341.16850636953075,77.29134262702735 341.95590795615954,77.29134262702735 345.10551430267446,76.50394104039862 347.4677190625606,74.92913786714115 346.68031747593193,76.50394104039862 345.89291588930314,76.50394104039862 342.7433095427882,79.65354738691354 344.3181127160457,79.65354738691354 343.530711129417,80.44094897354228 342.7433095427882,82.01575214679977 341.95590795615954,82.8031537334285 340.38110478290207,85.1653584933147 339.5937031962733,85.95276007994343 340.38110478290207,85.95276007994343 341.95590795615954,84.37795690668597 343.530711129417,82.8031537334285 345.10551430267446,82.01575214679977 " style="color: rgb(0, 0, 0);"/><polyline fill="none" stroke="#222222" stroke-width="2" stroke-linejoin="round" stroke-dashoffset="" fill-rule="nonzero" marker-start="" marker-mid="" marker-end="" id="svg_37" points="338.8063016096446,89.88976801308712 337.23149843638714,92.25197277297332 340.38110478290207,90.67716959971585 343.530711129417,87.5275632532009 344.3181127160457,87.5275632532009 341.95590795615954,89.88976801308712 339.5937031962733,93.03937435960205 338.0189000230158,95.40157911948825 337.23149843638714,95.40157911948825 340.38110478290207,93.82677594623078 345.89291588930314,88.31496483982963 347.4677190625606,85.95276007994343 346.68031747593193,87.5275632532009 344.3181127160457,89.88976801308712 342.7433095427882,92.25197277297332 341.95590795615954,93.82677594623078 340.38110478290207,95.40157911948825 342.7433095427882,93.03937435960205 346.68031747593193,89.88976801308712 349.82992382244686,86.74016166657216 352.1921285823331,85.1653584933147 352.9795301689618,84.37795690668597 352.1921285823331,84.37795690668597 351.4047269957043,85.1653584933147 350.61732540907553,85.1653584933147 349.04252223581807,85.95276007994343 348.2551206491894,86.74016166657216 348.2551206491894,85.95276007994343 349.04252223581807,85.1653584933147 349.82992382244686,83.59055532005723 350.61732540907553,81.22835056017104 351.4047269957043,80.44094897354228 350.61732540907553,79.65354738691354 349.82992382244686,79.65354738691354 346.68031747593193,81.22835056017104 344.3181127160457,82.8031537334285 342.7433095427882,83.59055532005723 342.7433095427882,82.8031537334285 344.3181127160457,81.22835056017104 345.10551430267446,79.65354738691354 348.2551206491894,76.50394104039862 349.82992382244686,74.92913786714115 347.4677190625606,78.07874421365608 345.10551430267446,79.65354738691354 341.16850636953075,84.37795690668597 338.8063016096446,86.74016166657216 338.0189000230158,87.5275632532009 338.8063016096446,85.95276007994343 341.16850636953075,82.8031537334285 341.95590795615954,81.22835056017104 341.16850636953075,82.01575214679977 338.8063016096446,83.59055532005723 338.0189000230158,85.95276007994343 335.6566952631297,87.5275632532009 335.6566952631297,85.95276007994343 337.23149843638714,83.59055532005723 337.23149843638714,82.8031537334285 338.8063016096446,79.65354738691354 338.8063016096446,80.44094897354228 338.0189000230158,81.22835056017104 337.23149843638714,84.37795690668597 335.6566952631297,86.74016166657216 337.23149843638714,85.1653584933147 338.0189000230158,84.37795690668597 339.5937031962733,81.22835056017104 341.95590795615954,78.86614580028481 343.530711129417,76.50394104039862 342.7433095427882,77.29134262702735 341.95590795615954,79.65354738691354 340.38110478290207,83.59055532005723 339.5937031962733,85.95276007994343 338.0189000230158,88.31496483982963 338.0189000230158,87.5275632532009 338.8063016096446,86.74016166657216 338.8063016096446,85.95276007994343 338.8063016096446,86.74016166657216 337.23149843638714,89.88976801308712 335.6566952631297,92.25197277297332 335.6566952631297,93.82677594623078 334.8692936765009,94.61417753285951 334.8692936765009,95.40157911948825 336.44409684975835,94.61417753285951 336.44409684975835,93.82677594623078 336.44409684975835,94.61417753285951 337.23149843638714,94.61417753285951 338.0189000230158,93.82677594623078 339.5937031962733,92.25197277297332 341.95590795615954,90.67716959971585 341.95590795615954,89.88976801308712 " style="color: rgb(0, 0, 0);"/><polyline fill="none" stroke="#222222" stroke-width="2" stroke-linejoin="round" stroke-dashoffset="" fill-rule="nonzero" marker-start="" marker-mid="" marker-end="" id="svg_38" points="392.3496095003985,73.35433469388369 394.71181426028477,81.22835056017104 395.49921584691344,81.22835056017104 395.49921584691344,79.65354738691354 394.71181426028477,77.29134262702735 393.924412673656,74.92913786714115 393.1370110870273,73.35433469388369 393.1370110870273,72.56693310725495 393.1370110870273,71.7795315206262 393.1370110870273,72.56693310725495 392.3496095003985,72.56693310725495 391.56220791376984,72.56693310725495 390.77480632714105,72.56693310725495 391.56220791376984,73.35433469388369 392.3496095003985,74.14173628051242 392.3496095003985,76.50394104039862 390.77480632714105,78.07874421365608 389.2000031538836,78.86614580028481 389.2000031538836,79.65354738691354 393.924412673656,78.86614580028481 395.49921584691344,78.86614580028481 394.71181426028477,78.86614580028481 394.71181426028477,79.65354738691354 394.71181426028477,81.22835056017104 393.924412673656,82.01575214679977 392.3496095003985,83.59055532005723 389.2000031538836,84.37795690668597 386.05039680736866,85.95276007994343 387.6251999806261,85.95276007994343 389.2000031538836,85.1653584933147 390.77480632714105,84.37795690668597 391.56220791376984,84.37795690668597 393.1370110870273,84.37795690668597 393.924412673656,84.37795690668597 394.71181426028477,84.37795690668597 396.28661743354223,84.37795690668597 398.6488221934284,84.37795690668597 399.43622378005716,84.37795690668597 400.22362536668584,83.59055532005723 401.0110269533146,83.59055532005723 401.7984285399434,82.8031537334285 401.7984285399434,82.01575214679977 401.0110269533146,81.22835056017104 398.6488221934284,80.44094897354228 397.0740190201709,79.65354738691354 396.28661743354223,78.86614580028481 394.71181426028477,78.86614580028481 393.924412673656,78.86614580028481 393.1370110870273,78.86614580028481 392.3496095003985,78.86614580028481 391.56220791376984,78.86614580028481 389.9874047405124,78.86614580028481 388.4126015672549,79.65354738691354 386.05039680736866,82.8031537334285 385.26299522074,82.8031537334285 386.05039680736866,82.8031537334285 391.56220791376984,82.8031537334285 393.924412673656,82.8031537334285 394.71181426028477,82.8031537334285 395.49921584691344,82.8031537334285 396.28661743354223,82.8031537334285 397.0740190201709,82.8031537334285 397.8614206067997,82.8031537334285 398.6488221934284,83.59055532005723 399.43622378005716,83.59055532005723 399.43622378005716,84.37795690668597 397.8614206067997,84.37795690668597 393.1370110870273,85.1653584933147 390.77480632714105,85.95276007994343 387.6251999806261,85.95276007994343 386.83779839399745,85.95276007994343 387.6251999806261,85.95276007994343 389.9874047405124,86.74016166657216 397.8614206067997,89.10236642645839 401.0110269533146,89.88976801308712 402.5858301265721,89.88976801308712 401.7984285399434,89.88976801308712 401.0110269533146,89.88976801308712 399.43622378005716,89.88976801308712 393.924412673656,89.88976801308712 389.9874047405124,89.10236642645839 387.6251999806261,88.31496483982963 388.4126015672549,88.31496483982963 389.9874047405124,88.31496483982963 393.924412673656,88.31496483982963 396.28661743354223,88.31496483982963 397.8614206067997,88.31496483982963 398.6488221934284,88.31496483982963 398.6488221934284,89.10236642645839 397.8614206067997,89.10236642645839 394.71181426028477,89.10236642645839 393.1370110870273,89.10236642645839 390.77480632714105,89.10236642645839 389.9874047405124,89.10236642645839 391.56220791376984,89.10236642645839 392.3496095003985,89.10236642645839 394.71181426028477,89.88976801308712 397.8614206067997,91.46457118634459 398.6488221934284,92.25197277297332 397.0740190201709,92.25197277297332 396.28661743354223,92.25197277297332 395.49921584691344,92.25197277297332 394.71181426028477,92.25197277297332 393.924412673656,93.82677594623078 393.1370110870273,93.03937435960205 391.56220791376984,90.67716959971585 389.2000031538836,86.74016166657216 388.4126015672549,85.1653584933147 387.6251999806261,85.1653584933147 387.6251999806261,85.95276007994343 388.4126015672549,86.74016166657216 389.9874047405124,89.88976801308712 390.77480632714105,91.46457118634459 392.3496095003985,97.76378387937447 393.924412673656,99.33858705263194 393.1370110870273,98.5511854660032 392.3496095003985,97.76378387937447 391.56220791376984,96.97638229274571 390.77480632714105,96.18898070611698 389.2000031538836,95.40157911948825 389.2000031538836,94.61417753285951 388.4126015672549,93.82677594623078 387.6251999806261,93.82677594623078 387.6251999806261,93.03937435960205 387.6251999806261,91.46457118634459 386.83779839399745,91.46457118634459 386.83779839399745,90.67716959971585 386.83779839399745,89.88976801308712 386.83779839399745,89.10236642645839 386.83779839399745,88.31496483982963 388.4126015672549,88.31496483982963 392.3496095003985,90.67716959971585 393.924412673656,93.03937435960205 395.49921584691344,94.61417753285951 397.8614206067997,96.18898070611698 398.6488221934284,96.18898070611698 399.43622378005716,96.18898070611698 401.0110269533146,89.88976801308712 401.7984285399434,88.31496483982963 401.7984285399434,87.5275632532009 401.7984285399434,88.31496483982963 401.7984285399434,89.88976801308712 401.7984285399434,89.10236642645839 401.7984285399434,87.5275632532009 401.0110269533146,82.8031537334285 400.22362536668584,80.44094897354228 399.43622378005716,78.86614580028481 399.43622378005716,79.65354738691354 399.43622378005716,82.01575214679977 400.22362536668584,85.1653584933147 401.0110269533146,86.74016166657216 401.0110269533146,88.31496483982963 401.0110269533146,89.10236642645839 400.22362536668584,89.88976801308712 399.43622378005716,89.88976801308712 " style="color: rgb(0, 0, 0);"/><polyline fill="none" stroke="#222222" stroke-width="2" stroke-linejoin="round" stroke-dashoffset="" fill-rule="nonzero" marker-start="" marker-mid="" marker-end="" id="svg_39" points="341.16850636953075,209.57480918065482 341.16850636953075,209.57480918065482 341.95590795615954,209.57480918065482 342.7433095427882,209.57480918065482 343.530711129417,209.57480918065482 344.3181127160457,209.57480918065482 345.89291588930314,209.57480918065482 346.68031747593193,209.57480918065482 347.4677190625606,209.57480918065482 349.04252223581807,208.7874075940261 349.82992382244686,208.7874075940261 351.4047269957043,208.7874075940261 352.1921285823331,208.0000060073974 352.9795301689618,208.0000060073974 " style="color: rgb(0, 0, 0);"/><polyline fill="none" stroke="#222222" stroke-width="2" stroke-linejoin="round" stroke-dashoffset="" fill-rule="nonzero" marker-start="" marker-mid="" marker-end="" id="svg_40" points="374.2393730079376,207.21260442076866 375.8141761811951,207.21260442076866 377.38897935445254,207.21260442076866 378.17638094108133,207.21260442076866 379.7511841143388,208.0000060073974 380.5385857009675,208.0000060073974 381.32598728759626,208.0000060073974 382.11338887422494,208.0000060073974 382.9007904608537,208.0000060073974 383.6881920474824,208.0000060073974 " style="color: rgb(0, 0, 0);"/><polyline fill="#e84141" stroke="#222222" stroke-width="2" stroke-linejoin="round" stroke-dashoffset="" fill-rule="nonzero" marker-start="" marker-mid="" marker-end="" id="svg_41" points="376.60157776782387,132.40945369103878 376.60157776782387,132.40945369103878 " style="color: rgb(0, 0, 0);"/></g></svg>